<?xml version="1.0" encoding="UTF-8" standalone="no"?>
<!-- Created with Inkscape (http://www.inkscape.org/) -->

<svg
   xmlns:svg="http://www.w3.org/2000/svg"
   xmlns="http://www.w3.org/2000/svg"
   version="1.2"
   width="100%"
   height="100%"
   viewBox="-10 -10 20 20"
   id="svg2834">
  <title
     id="title2838">Hoheitsgrenzstein auf Bolzen, character Q</title>
  <defs
     id="defs2844" />
  <path
     d="m 26.440677,2.4254234 a 2.8389831,2.8389831 0 1 1 -5.677966,0 2.8389831,2.8389831 0 1 1 5.677966,0 z"
     transform="matrix(3.1791044,0,0,3.1791044,-75.03225,-7.7106742)"
     id="path3927"
     style="fill:#ffffff;fill-opacity:1;stroke-width:0" />
  <path
     d="m -9.45,0 c 0,5.2125 4.2375,9.45 9.45,9.45 5.2125,0 9.45,-4.2375 9.45,-9.45 0,-5.2125 -4.2375,-9.45 -9.45,-9.45 -5.2125,0 -9.45,4.2375 -9.45,9.45 z m 1.05,0 c 0,-4.6125 3.7875,-8.4 8.4,-8.4 4.6125,0 8.4,3.7875 8.4,8.4 C 8.4,4.6125 4.6125,8.4 0,8.4 -4.6125,8.4 -8.4,4.6125 -8.4,0 z m 5.25,0 c 0,1.7625 1.3875,3.15 3.15,3.15 1.7625,0 3.15,-1.3875 3.15,-3.15 0,-1.7625 -1.3875,-3.15 -3.15,-3.15 -1.7625,0 -3.15,1.3875 -3.15,3.15 z m 1.05,0 c 0,-1.1625 0.9375,-2.1 2.1,-2.1 1.1625,0 2.1,0.9375 2.1,2.1 C 2.1,1.1625 1.1625,2.1 0,2.1 -1.1625,2.1 -2.1,1.1625 -2.1,0 z"
     id="path2840"
     style="fill:#000000;stroke:#000000;stroke-width:0;stroke-miterlimit:4;stroke-opacity:1;stroke-dasharray:none" />
</svg>
