<?xml version="1.0" encoding="UTF-8" standalone="no"?>
<!-- Created with Inkscape (http://www.inkscape.org/) -->

<svg
   xmlns:svg="http://www.w3.org/2000/svg"
   xmlns="http://www.w3.org/2000/svg"
   version="1.2"
   width="100%"
   height="100%"
   viewBox="-10 -10 20 20"
   id="svg2820">
  <title
     id="title2824">Bezugspunkt, character q</title>
  <defs
     id="defs2830" />
  <path
     d="m 26.440677,2.4254234 a 2.8389831,2.8389831 0 1 1 -5.677966,0 2.8389831,2.8389831 0 1 1 5.677966,0 z"
     transform="matrix(2.761194,0,0,2.761194,-65.168856,-6.7818101)"
     id="path3927"
     style="fill:#ffffff;fill-opacity:1;stroke-width:0" />
  <path
     d="m -5.775,0 c 0,3.1875 2.5875,5.775 5.775,5.775 3.1875,0 5.775,-2.5875 5.775,-5.775 0,-3.1875 -2.5875,-5.775 -5.775,-5.775 -3.1875,0 -5.775,2.5875 -5.775,5.775 z m 1.05,0 c 0,-2.5875 2.1375,-4.725 4.725,-4.725 2.5875,0 4.725,2.1375 4.725,4.725 C 4.725,2.5875 2.5875,4.725 0,4.725 -2.5875,4.725 -4.725,2.5875 -4.725,0 z M -8.4,0 c 0,4.65 3.75,8.4 8.4,8.4 4.65,0 8.4,-3.75 8.4,-8.4 0,-4.65 -3.75,-8.4 -8.4,-8.4 -4.65,0 -8.4,3.75 -8.4,8.4 z m 1.05,0 c 0,-4.05 3.3,-7.35 7.35,-7.35 4.05,0 7.35,3.3 7.35,7.35 0,4.05 -3.3,7.35 -7.35,7.35 -4.05,0 -7.35,-3.3 -7.35,-7.35 z"
     id="path2826"
     style="fill:#000000;stroke:#000000;stroke-width:0;stroke-miterlimit:4;stroke-opacity:1;stroke-dasharray:none" />
</svg>
