<?xml version="1.0" encoding="UTF-8" standalone="no"?>
<!-- Created with Inkscape (http://www.inkscape.org/) -->

<svg
   xmlns:svg="http://www.w3.org/2000/svg"
   xmlns="http://www.w3.org/2000/svg"
   version="1.2"
   width="100%"
   height="100%"
   viewBox="-10 -10 20 20"
   id="svg2820">
  <title
     id="title2824">Hoheitsgrenzpunkt auf Kreuz, character S</title>
  <defs
     id="defs2830" />
  <path
     d="m 26.440677,2.4254234 a 2.8389831,2.8389831 0 1 1 -5.677966,0 2.8389831,2.8389831 0 1 1 5.677966,0 z"
     transform="matrix(3.1791044,0,0,3.1791044,-75.03225,-7.7106742)"
     id="path3927"
     style="fill:#ffffff;fill-opacity:1;stroke-width:0" />
  <path
     d="m -9.45,0 c 0,5.2125 4.2375,9.45 9.45,9.45 5.2125,0 9.45,-4.2375 9.45,-9.45 0,-5.2125 -4.2375,-9.45 -9.45,-9.45 -5.2125,0 -9.45,4.2375 -9.45,9.45 z m 1.05,0 c 0,-4.6125 3.7875,-8.4 8.4,-8.4 4.6125,0 8.4,3.7875 8.4,8.4 C 8.4,4.6125 4.6125,8.4 0,8.4 -4.6125,8.4 -8.4,4.6125 -8.4,0 z M 2.625,0 c 0,-0.525 -0.15,-1.0125 -0.45,-1.425 L 4.8,-4.05 C 4.575,-4.3125 4.35,-4.575 4.0875,-4.8 l -2.625,2.625 C 1.05,-2.4375 0.525,-2.625 0,-2.625 c -0.525,0 -1.05,0.15 -1.4625,0.45 L -4.0875,-4.8 c -0.2625,0.225 -0.525,0.4875 -0.75,0.75 l 2.625,2.625 C -2.475,-1.0125 -2.625,-0.525 -2.625,0 c 0,0.525 0.15,1.05 0.45,1.4625 L -4.8,4.0875 C -4.575,4.35 -4.35,4.575 -4.0875,4.8 l 2.625,-2.625 c 0.4125,0.3 0.9375,0.45 1.4625,0.45 0.525,0 1.0125,-0.1875 1.425,-0.45 L 4.05,4.8 C 4.3125,4.575 4.575,4.3125 4.8,4.05 L 2.175,1.425 C 2.4375,1.0125 2.625,0.525 2.625,0 z m -4.2,0 c 0,-0.8625 0.7125,-1.575 1.575,-1.575 0.9,0 1.575,0.7125 1.575,1.575 C 1.575,0.8625 0.9,1.575 0,1.575 -0.8625,1.575 -1.575,0.8625 -1.575,0 z"
     id="path2826"
     style="fill:#000000;stroke:#000000;stroke-width:0;stroke-miterlimit:4;stroke-opacity:1;stroke-dasharray:none" />
</svg>
