<?xml version="1.0" encoding="UTF-8" standalone="no"?>
<!-- Created with Inkscape (http://www.inkscape.org/) -->

<svg
   xmlns:svg="http://www.w3.org/2000/svg"
   xmlns="http://www.w3.org/2000/svg"
   version="1.2"
   width="100%"
   height="100%"
   viewBox="-10 -10 20 20"
   id="svg4125">
  <title
     id="title4129">Fixpunkt (fix-point), character B</title>
  <defs
     id="defs4135" />
  <path
     d="m 26.440677,2.4254234 a 2.8389831,2.8389831 0 1 1 -5.677966,0 2.8389831,2.8389831 0 1 1 5.677966,0 z"
     transform="matrix(3.3880596,0,0,3.3880596,-79.963947,-8.217479)"
     id="path3927"
     style="fill:#ffffff;fill-opacity:1;stroke-width:0" />
  <path
     d="m -2.625,0 c 0,-1.4625 1.1625,-2.625 2.625,-2.625 1.4625,0 2.625,1.1625 2.625,2.625 C 2.625,1.4625 1.4625,2.625 0,2.625 -1.4625,2.625 -2.625,1.4625 -2.625,0 z m 1.05,0 c 0,0.8625 0.7125,1.575 1.575,1.575 0.8625,0 1.575,-0.7125 1.575,-1.575 0,-0.8625 -0.7125,-1.575 -1.575,-1.575 -0.8625,0 -1.575,0.7125 -1.575,1.575 z m -8.4,0 c 0,-5.5125 4.4625,-9.975 9.975,-9.975 5.5125,0 9.975,4.4625 9.975,9.975 C 9.975,5.5125 5.5125,9.975 0,9.975 -5.5125,9.975 -9.975,5.5125 -9.975,0 z m 3.375,3.7875 13.1625,0 L 0,-7.6125 -6.6,3.7875 z M 0,8.925 c 3.15,0 5.925,-1.65 7.5,-4.0875 l -15.0375,0 C -5.9625,7.275 -3.1875,8.925 0,8.925 z M -8.925,0 c 0,1.4625 0.3375,2.85 0.975,4.05 L -0.4875,-8.925 C -5.2125,-8.6625 -8.925,-4.8 -8.925,0 z m 17.85,0 c 0,-4.8 -3.75,-8.6625 -8.475,-8.925 L 7.95,4.05 C 8.55,2.85 8.925,1.4625 8.925,0 z"
     id="path4131"
     style="fill:#000000;stroke:#000000;stroke-width:0;stroke-miterlimit:4;stroke-opacity:1;stroke-dasharray:none" />
</svg>
