<?xml version="1.0" encoding="UTF-8" standalone="no"?>
<!-- Created with Inkscape (http://www.inkscape.org/) -->

<svg
   xmlns:svg="http://www.w3.org/2000/svg"
   xmlns="http://www.w3.org/2000/svg"
   version="1.2"
   width="100%"
   height="100%"
   viewBox="-10 -10 20 20"
   id="svg2876">
  <title
     id="title2880">Lagefixpunkt 3 auf Kreuz als bedeutsamer Hoheitsgrenzpunkt, character W</title>
  <defs
     id="defs2886" />
  <path
     d="m 26.440677,2.4254234 a 2.8389831,2.8389831 0 1 1 -5.677966,0 2.8389831,2.8389831 0 1 1 5.677966,0 z"
     transform="matrix(3.1791044,0,0,3.1791044,-75.03225,-7.7106741)"
     id="path3927"
     style="fill:#ffffff;fill-opacity:1;stroke-width:0" />
  <path
     d="m -6.825,0 c 0,3.7875 3.0375,6.825 6.825,6.825 3.7875,0 6.825,-3.0375 6.825,-6.825 0,-3.7875 -3.0375,-6.825 -6.825,-6.825 -3.7875,0 -6.825,3.0375 -6.825,6.825 z m 4.2375,0 c 0,0.525 0.15,1.05 0.45,1.4625 l -2.2875,2.25 C -5.2875,2.7 -5.775,1.425 -5.775,0 c 0,-1.3875 0.4875,-2.7 1.3125,-3.675 l 2.2875,2.25 c -0.2625,0.4125 -0.4125,0.9 -0.4125,1.425 z m 2.625,2.625 c 0.525,0 1.0125,-0.1875 1.425,-0.45 l 2.25,2.2125 C 2.7,5.25 1.425,5.775 0,5.775 c -1.425,0 -2.7,-0.4875 -3.7125,-1.35 l 2.2875,-2.25 c 0.4125,0.2625 0.9,0.45 1.4625,0.45 z m 0,-5.25 c -0.5625,0 -1.05,0.1875 -1.4625,0.45 l -2.2875,-2.25 C -2.7,-5.2875 -1.425,-5.775 0,-5.775 c 1.3875,0 2.7,0.525 3.7125,1.35 l -2.25,2.25 c -0.4125,-0.2625 -0.9,-0.45 -1.425,-0.45 z M 2.6625,0 c 0,-0.525 -0.1875,-1.0125 -0.45,-1.425 l 2.25,-2.25 C 5.2875,-2.6625 5.775,-1.3875 5.775,0 5.775,1.3875 5.2875,2.6625 4.4625,3.675 L 2.2125,1.4625 C 2.475,1.05 2.6625,0.525 2.6625,0 z m -4.2,0 c 0,-0.8625 0.7125,-1.575 1.575,-1.575 0.8625,0 1.575,0.7125 1.575,1.575 0,0.8625 -0.7125,1.575 -1.575,1.575 -0.8625,0 -1.575,-0.7125 -1.575,-1.575 z M -9.45,0 c 0,5.2125 4.2375,9.45 9.45,9.45 5.2125,0 9.45,-4.2375 9.45,-9.45 0,-5.2125 -4.2375,-9.45 -9.45,-9.45 -5.2125,0 -9.45,4.2375 -9.45,9.45 z m 1.05,0 c 0,-4.6125 3.7875,-8.4 8.4,-8.4 4.6125,0 8.4,3.7875 8.4,8.4 C 8.4,4.6125 4.6125,8.4 0,8.4 -4.6125,8.4 -8.4,4.6125 -8.4,0 z"
     id="path2882"
     style="fill:#000000;stroke:#000000;stroke-width:0;stroke-miterlimit:4;stroke-opacity:1;stroke-dasharray:none" />
</svg>
