<?xml version="1.0" encoding="UTF-8" standalone="no"?>
<!-- Created with Inkscape (http://www.inkscape.org/) -->

<svg
   xmlns:svg="http://www.w3.org/2000/svg"
   xmlns="http://www.w3.org/2000/svg"
   version="1.2"
   width="100%"
   height="100%"
   viewBox="-10 -10 20 20"
   id="svg2862">
  <title
     id="title2866">Lagefixpunkt 3 auf Rohr oder Pfahl als bedeutsamer Hoheitsgrenzpunkt, character V</title>
  <defs
     id="defs2872" />
  <path
     d="m 26.440677,2.4254234 a 2.8389831,2.8389831 0 1 1 -5.677966,0 2.8389831,2.8389831 0 1 1 5.677966,0 z"
     transform="matrix(3.1791044,0,0,3.1791044,-75.032249,-7.7106742)"
     id="path3927"
     style="fill:#ffffff;fill-opacity:1;stroke-width:0" />
  <path
     d="m -6.825,0 c 0,3.7875 3.0375,6.825 6.825,6.825 3.7875,0 6.825,-3.0375 6.825,-6.825 0,-3.7875 -3.0375,-6.825 -6.825,-6.825 -3.7875,0 -6.825,3.0375 -6.825,6.825 z m 1.05,0 c 0,-3.1875 2.5875,-5.775 5.775,-5.775 3.1875,0 5.775,2.5875 5.775,5.775 C 5.775,3.1875 3.1875,5.775 0,5.775 -3.1875,5.775 -5.775,3.1875 -5.775,0 z M -9.45,0 c 0,5.2125 4.2375,9.45 9.45,9.45 5.2125,0 9.45,-4.2375 9.45,-9.45 0,-5.2125 -4.2375,-9.45 -9.45,-9.45 -5.2125,0 -9.45,4.2375 -9.45,9.45 z m 1.05,0 c 0,-4.6125 3.7875,-8.4 8.4,-8.4 4.6125,0 8.4,3.7875 8.4,8.4 C 8.4,4.6125 4.6125,8.4 0,8.4 -4.6125,8.4 -8.4,4.6125 -8.4,0 z m 5.775,0 c 0,1.4625 1.1625,2.625 2.625,2.625 1.4625,0 2.625,-1.1625 2.625,-2.625 0,-1.4625 -1.1625,-2.625 -2.625,-2.625 -1.4625,0 -2.625,1.1625 -2.625,2.625 z m 1.05,0 c 0,-0.8625 0.7125,-1.575 1.575,-1.575 0.8625,0 1.575,0.7125 1.575,1.575 C 1.575,0.8625 0.8625,1.575 0,1.575 -0.8625,1.575 -1.575,0.8625 -1.575,0 z"
     id="path2868"
     style="fill:#000000;stroke:#000000;stroke-width:0;stroke-miterlimit:4;stroke-opacity:1;stroke-dasharray:none" />
</svg>
